<svg width="107" height="36" viewBox="0 0 107 36" fill="none" xmlns="http://www.w3.org/2000/svg">
<path d="M5.032 17.624C5.032 15.992 5.4 14.528 6.136 13.232C6.872 11.92 7.872 10.896 9.136 10.16C10.416 9.424 11.832 9.056 13.384 9.056C15.208 9.056 16.8 9.496 18.16 10.376C19.52 11.256 20.512 12.504 21.136 14.12H18.52C18.056 13.112 17.384 12.336 16.504 11.792C15.64 11.248 14.6 10.976 13.384 10.976C12.216 10.976 11.168 11.248 10.24 11.792C9.312 12.336 8.584 13.112 8.056 14.12C7.528 15.112 7.264 16.28 7.264 17.624C7.264 18.952 7.528 20.12 8.056 21.128C8.584 22.12 9.312 22.888 10.24 23.432C11.168 23.976 12.216 24.248 13.384 24.248C14.6 24.248 15.64 23.984 16.504 23.456C17.384 22.912 18.056 22.136 18.52 21.128H21.136C20.512 22.728 19.52 23.968 18.16 24.848C16.8 25.712 15.208 26.144 13.384 26.144C11.832 26.144 10.416 25.784 9.136 25.064C7.872 24.328 6.872 23.312 6.136 22.016C5.4 20.72 5.032 19.256 5.032 17.624ZM30.1231 26.216C28.8911 26.216 27.7711 25.936 26.7631 25.376C25.7711 24.816 24.9871 24.024 24.4111 23C23.8511 21.96 23.5711 20.76 23.5711 19.4C23.5711 18.056 23.8591 16.872 24.4351 15.848C25.0271 14.808 25.8271 14.016 26.8351 13.472C27.8431 12.912 28.9711 12.632 30.2191 12.632C31.4671 12.632 32.5951 12.912 33.6031 13.472C34.6111 14.016 35.4031 14.8 35.9791 15.824C36.5711 16.848 36.8671 18.04 36.8671 19.4C36.8671 20.76 36.5631 21.96 35.9551 23C35.3631 24.024 34.5551 24.816 33.5311 25.376C32.5071 25.936 31.3711 26.216 30.1231 26.216ZM30.1231 24.296C30.9071 24.296 31.6431 24.112 32.3311 23.744C33.0191 23.376 33.5711 22.824 33.9871 22.088C34.4191 21.352 34.6351 20.456 34.6351 19.4C34.6351 18.344 34.4271 17.448 34.0111 16.712C33.5951 15.976 33.0511 15.432 32.3791 15.08C31.7071 14.712 30.9791 14.528 30.1951 14.528C29.3951 14.528 28.6591 14.712 27.9871 15.08C27.3311 15.432 26.8031 15.976 26.4031 16.712C26.0031 17.448 25.8031 18.344 25.8031 19.4C25.8031 20.472 25.9951 21.376 26.3791 22.112C26.7791 22.848 27.3071 23.4 27.9631 23.768C28.6191 24.12 29.3391 24.296 30.1231 24.296ZM46.1466 12.608C47.7466 12.608 49.0426 13.096 50.0346 14.072C51.0266 15.032 51.5226 16.424 51.5226 18.248V26H49.3626V18.56C49.3626 17.248 49.0346 16.248 48.3786 15.56C47.7226 14.856 46.8266 14.504 45.6906 14.504C44.5386 14.504 43.6186 14.864 42.9306 15.584C42.2586 16.304 41.9226 17.352 41.9226 18.728V26H39.7386V12.848H41.9226V14.72C42.3546 14.048 42.9386 13.528 43.6746 13.16C44.4266 12.792 45.2506 12.608 46.1466 12.608ZM57.7542 14.648V22.4C57.7542 23.04 57.8902 23.496 58.1622 23.768C58.4342 24.024 58.9062 24.152 59.5782 24.152H61.1862V26H59.2182C58.0022 26 57.0902 25.72 56.4822 25.16C55.8742 24.6 55.5702 23.68 55.5702 22.4V14.648H53.8662V12.848H55.5702V9.536H57.7542V12.848H61.1862V14.648H57.7542ZM63.0164 19.376C63.0164 18.032 63.2884 16.856 63.8324 15.848C64.3764 14.824 65.1204 14.032 66.0644 13.472C67.0244 12.912 68.0884 12.632 69.2564 12.632C70.4084 12.632 71.4084 12.88 72.2564 13.376C73.1044 13.872 73.7364 14.496 74.1524 15.248V12.848H76.3604V26H74.1524V23.552C73.7204 24.32 73.0724 24.96 72.2084 25.472C71.3604 25.968 70.3684 26.216 69.2324 26.216C68.0644 26.216 67.0084 25.928 66.0644 25.352C65.1204 24.776 64.3764 23.968 63.8324 22.928C63.2884 21.888 63.0164 20.704 63.0164 19.376ZM74.1524 19.4C74.1524 18.408 73.9524 17.544 73.5524 16.808C73.1524 16.072 72.6084 15.512 71.9204 15.128C71.2484 14.728 70.5044 14.528 69.6884 14.528C68.8724 14.528 68.1284 14.72 67.4564 15.104C66.7844 15.488 66.2484 16.048 65.8484 16.784C65.4484 17.52 65.2484 18.384 65.2484 19.376C65.2484 20.384 65.4484 21.264 65.8484 22.016C66.2484 22.752 66.7844 23.32 67.4564 23.72C68.1284 24.104 68.8724 24.296 69.6884 24.296C70.5044 24.296 71.2484 24.104 71.9204 23.72C72.6084 23.32 73.1524 22.752 73.5524 22.016C73.9524 21.264 74.1524 20.392 74.1524 19.4ZM82.7151 14.648V22.4C82.7151 23.04 82.8511 23.496 83.1231 23.768C83.3951 24.024 83.8671 24.152 84.5391 24.152H86.1471V26H84.1791C82.9631 26 82.0511 25.72 81.4431 25.16C80.8351 24.6 80.5311 23.68 80.5311 22.4V14.648H78.8271V12.848H80.5311V9.536H82.7151V12.848H86.1471V14.648H82.7151ZM94.5293 26.216C93.2973 26.216 92.1773 25.936 91.1693 25.376C90.1773 24.816 89.3933 24.024 88.8173 23C88.2573 21.96 87.9773 20.76 87.9773 19.4C87.9773 18.056 88.2653 16.872 88.8413 15.848C89.4333 14.808 90.2333 14.016 91.2413 13.472C92.2493 12.912 93.3773 12.632 94.6253 12.632C95.8733 12.632 97.0013 12.912 98.0093 13.472C99.0173 14.016 99.8093 14.8 100.385 15.824C100.977 16.848 101.273 18.04 101.273 19.4C101.273 20.76 100.969 21.96 100.361 23C99.7693 24.024 98.9613 24.816 97.9373 25.376C96.9133 25.936 95.7773 26.216 94.5293 26.216ZM94.5293 24.296C95.3133 24.296 96.0493 24.112 96.7373 23.744C97.4253 23.376 97.9773 22.824 98.3933 22.088C98.8253 21.352 99.0413 20.456 99.0413 19.4C99.0413 18.344 98.8333 17.448 98.4173 16.712C98.0013 15.976 97.4573 15.432 96.7853 15.08C96.1133 14.712 95.3853 14.528 94.6013 14.528C93.8013 14.528 93.0653 14.712 92.3933 15.08C91.7373 15.432 91.2093 15.976 90.8093 16.712C90.4093 17.448 90.2093 18.344 90.2093 19.4C90.2093 20.472 90.4013 21.376 90.7853 22.112C91.1853 22.848 91.7133 23.4 92.3693 23.768C93.0253 24.12 93.7453 24.296 94.5293 24.296Z" fill="#063643"/>
</svg>
