<svg width="71" height="36" viewBox="0 0 71 36" fill="none" xmlns="http://www.w3.org/2000/svg">
<path d="M8.032 9.272V26H5.848V9.272H8.032ZM18.1623 12.608C19.7623 12.608 21.0583 13.096 22.0503 14.072C23.0423 15.032 23.5383 16.424 23.5383 18.248V26H21.3783V18.56C21.3783 17.248 21.0503 16.248 20.3943 15.56C19.7383 14.856 18.8423 14.504 17.7063 14.504C16.5543 14.504 15.6343 14.864 14.9463 15.584C14.2743 16.304 13.9383 17.352 13.9383 18.728V26H11.7543V12.848H13.9383V14.72C14.3703 14.048 14.9543 13.528 15.6903 13.16C16.4423 12.792 17.2663 12.608 18.1623 12.608ZM29.2898 12.848V26H27.1058V12.848H29.2898ZM30.5378 9.128L25.4258 11.864V10.232L30.5378 7.232V9.128ZM32.1961 19.4C32.1961 18.04 32.4681 16.856 33.0121 15.848C33.5561 14.824 34.3081 14.032 35.2681 13.472C36.2441 12.912 37.3561 12.632 38.6041 12.632C40.2201 12.632 41.5481 13.024 42.5881 13.808C43.6441 14.592 44.3401 15.68 44.6761 17.072H42.3241C42.1001 16.272 41.6601 15.64 41.0041 15.176C40.3641 14.712 39.5641 14.48 38.6041 14.48C37.3561 14.48 36.3481 14.912 35.5801 15.776C34.8121 16.624 34.4281 17.832 34.4281 19.4C34.4281 20.984 34.8121 22.208 35.5801 23.072C36.3481 23.936 37.3561 24.368 38.6041 24.368C39.5641 24.368 40.3641 24.144 41.0041 23.696C41.6441 23.248 42.0841 22.608 42.3241 21.776H44.6761C44.3241 23.12 43.6201 24.2 42.5641 25.016C41.5081 25.816 40.1881 26.216 38.6041 26.216C37.3561 26.216 36.2441 25.936 35.2681 25.376C34.3081 24.816 33.5561 24.024 33.0121 23C32.4681 21.976 32.1961 20.776 32.1961 19.4ZM48.7182 10.712C48.3022 10.712 47.9502 10.568 47.6622 10.28C47.3742 9.992 47.2302 9.64 47.2302 9.224C47.2302 8.808 47.3742 8.456 47.6622 8.168C47.9502 7.88 48.3022 7.736 48.7182 7.736C49.1182 7.736 49.4542 7.88 49.7262 8.168C50.0142 8.456 50.1582 8.808 50.1582 9.224C50.1582 9.64 50.0142 9.992 49.7262 10.28C49.4542 10.568 49.1182 10.712 48.7182 10.712ZM49.7742 12.848V26H47.5902V12.848H49.7742ZM59.2324 26.216C58.0004 26.216 56.8804 25.936 55.8724 25.376C54.8804 24.816 54.0964 24.024 53.5204 23C52.9604 21.96 52.6804 20.76 52.6804 19.4C52.6804 18.056 52.9684 16.872 53.5444 15.848C54.1364 14.808 54.9364 14.016 55.9444 13.472C56.9524 12.912 58.0804 12.632 59.3284 12.632C60.5764 12.632 61.7044 12.912 62.7124 13.472C63.7204 14.016 64.5124 14.8 65.0884 15.824C65.6804 16.848 65.9764 18.04 65.9764 19.4C65.9764 20.76 65.6724 21.96 65.0644 23C64.4724 24.024 63.6644 24.816 62.6404 25.376C61.6164 25.936 60.4804 26.216 59.2324 26.216ZM59.2324 24.296C60.0164 24.296 60.7524 24.112 61.4404 23.744C62.1284 23.376 62.6804 22.824 63.0964 22.088C63.5284 21.352 63.7444 20.456 63.7444 19.4C63.7444 18.344 63.5364 17.448 63.1204 16.712C62.7044 15.976 62.1604 15.432 61.4884 15.08C60.8164 14.712 60.0884 14.528 59.3044 14.528C58.5044 14.528 57.7684 14.712 57.0964 15.08C56.4404 15.432 55.9124 15.976 55.5124 16.712C55.1124 17.448 54.9124 18.344 54.9124 19.4C54.9124 20.472 55.1044 21.376 55.4884 22.112C55.8884 22.848 56.4164 23.4 57.0724 23.768C57.7284 24.12 58.4484 24.296 59.2324 24.296Z" fill="#063643"/>
</svg>
