<svg width="108" height="36" viewBox="0 0 108 36" fill="none" xmlns="http://www.w3.org/2000/svg">
<path d="M11.152 26.168C10.048 26.168 9.056 25.976 8.176 25.592C7.312 25.192 6.632 24.648 6.136 23.96C5.64 23.256 5.384 22.448 5.368 21.536H7.696C7.776 22.32 8.096 22.984 8.656 23.528C9.232 24.056 10.064 24.32 11.152 24.32C12.192 24.32 13.008 24.064 13.6 23.552C14.208 23.024 14.512 22.352 14.512 21.536C14.512 20.896 14.336 20.376 13.984 19.976C13.632 19.576 13.192 19.272 12.664 19.064C12.136 18.856 11.424 18.632 10.528 18.392C9.424 18.104 8.536 17.816 7.864 17.528C7.208 17.24 6.64 16.792 6.16 16.184C5.696 15.56 5.464 14.728 5.464 13.688C5.464 12.776 5.696 11.968 6.16 11.264C6.624 10.56 7.272 10.016 8.104 9.632C8.952 9.248 9.92 9.056 11.008 9.056C12.576 9.056 13.856 9.448 14.848 10.232C15.856 11.016 16.424 12.056 16.552 13.352H14.152C14.072 12.712 13.736 12.152 13.144 11.672C12.552 11.176 11.768 10.928 10.792 10.928C9.88 10.928 9.136 11.168 8.56 11.648C7.984 12.112 7.696 12.768 7.696 13.616C7.696 14.224 7.864 14.72 8.2 15.104C8.552 15.488 8.976 15.784 9.472 15.992C9.984 16.184 10.696 16.408 11.608 16.664C12.712 16.968 13.6 17.272 14.272 17.576C14.944 17.864 15.52 18.32 16 18.944C16.48 19.552 16.72 20.384 16.72 21.44C16.72 22.256 16.504 23.024 16.072 23.744C15.64 24.464 15 25.048 14.152 25.496C13.304 25.944 12.304 26.168 11.152 26.168ZM31.9339 18.92C31.9339 19.336 31.9099 19.776 31.8619 20.24H21.3499C21.4299 21.536 21.8699 22.552 22.6699 23.288C23.4859 24.008 24.4699 24.368 25.6219 24.368C26.5659 24.368 27.3499 24.152 27.9739 23.72C28.6139 23.272 29.0619 22.68 29.3179 21.944H31.6699C31.3179 23.208 30.6139 24.24 29.5579 25.04C28.5019 25.824 27.1899 26.216 25.6219 26.216C24.3739 26.216 23.2539 25.936 22.2619 25.376C21.2859 24.816 20.5179 24.024 19.9579 23C19.3979 21.96 19.1179 20.76 19.1179 19.4C19.1179 18.04 19.3899 16.848 19.9339 15.824C20.4779 14.8 21.2379 14.016 22.2139 13.472C23.2059 12.912 24.3419 12.632 25.6219 12.632C26.8699 12.632 27.9739 12.904 28.9339 13.448C29.8939 13.992 30.6299 14.744 31.1419 15.704C31.6699 16.648 31.9339 17.72 31.9339 18.92ZM29.6779 18.464C29.6779 17.632 29.4939 16.92 29.1259 16.328C28.7579 15.72 28.2539 15.264 27.6139 14.96C26.9899 14.64 26.2939 14.48 25.5259 14.48C24.4219 14.48 23.4779 14.832 22.6939 15.536C21.9259 16.24 21.4859 17.216 21.3739 18.464H29.6779ZM37.0008 14.984C37.3848 14.232 37.9288 13.648 38.6328 13.232C39.3528 12.816 40.2248 12.608 41.2488 12.608V14.864H40.6728C38.2248 14.864 37.0008 16.192 37.0008 18.848V26H34.8168V12.848H37.0008V14.984ZM48.6659 23.984L52.7459 12.848H55.0739L49.9139 26H47.3699L42.2099 12.848H44.5619L48.6659 23.984ZM58.351 10.712C57.935 10.712 57.583 10.568 57.295 10.28C57.007 9.992 56.863 9.64 56.863 9.224C56.863 8.808 57.007 8.456 57.295 8.168C57.583 7.88 57.935 7.736 58.351 7.736C58.751 7.736 59.087 7.88 59.359 8.168C59.647 8.456 59.791 8.808 59.791 9.224C59.791 9.64 59.647 9.992 59.359 10.28C59.087 10.568 58.751 10.712 58.351 10.712ZM59.407 12.848V26H57.223V12.848H59.407ZM68.7213 24.368C69.6813 24.368 70.4813 24.144 71.1213 23.696C71.7613 23.248 72.2013 22.608 72.4413 21.776H74.7933C74.4733 23.024 73.8413 24.048 72.8973 24.848C71.9693 25.632 70.8013 26.08 69.3933 26.192V27.392C70.3373 27.376 71.0893 27.576 71.6493 27.992C72.2093 28.408 72.4893 29 72.4893 29.768C72.4893 30.52 72.2173 31.12 71.6733 31.568C71.1293 32.016 70.4253 32.24 69.5613 32.24H66.8013V30.824H69.1293C69.6573 30.824 70.0413 30.744 70.2813 30.584C70.5373 30.424 70.6653 30.152 70.6653 29.768C70.6653 29.4 70.5373 29.136 70.2813 28.976C70.0413 28.816 69.6573 28.736 69.1293 28.736H67.9293V26.168C66.8253 26.056 65.8493 25.712 65.0013 25.136C64.1533 24.544 63.4893 23.76 63.0093 22.784C62.5453 21.792 62.3133 20.664 62.3133 19.4C62.3133 18.04 62.5853 16.856 63.1293 15.848C63.6733 14.824 64.4253 14.032 65.3853 13.472C66.3613 12.912 67.4733 12.632 68.7213 12.632C70.3373 12.632 71.6653 13.024 72.7053 13.808C73.7613 14.592 74.4573 15.68 74.7933 17.072H72.4413C72.2173 16.272 71.7773 15.64 71.1213 15.176C70.4813 14.712 69.6813 14.48 68.7213 14.48C67.4733 14.48 66.4653 14.912 65.6973 15.776C64.9293 16.624 64.5453 17.832 64.5453 19.4C64.5453 20.984 64.9293 22.208 65.6973 23.072C66.4653 23.936 67.4733 24.368 68.7213 24.368ZM83.4434 26.216C82.2114 26.216 81.0914 25.936 80.0834 25.376C79.0914 24.816 78.3074 24.024 77.7314 23C77.1714 21.96 76.8914 20.76 76.8914 19.4C76.8914 18.056 77.1794 16.872 77.7554 15.848C78.3474 14.808 79.1474 14.016 80.1554 13.472C81.1634 12.912 82.2914 12.632 83.5394 12.632C84.7874 12.632 85.9154 12.912 86.9234 13.472C87.9314 14.016 88.7234 14.8 89.2994 15.824C89.8914 16.848 90.1874 18.04 90.1874 19.4C90.1874 20.76 89.8834 21.96 89.2754 23C88.6834 24.024 87.8754 24.816 86.8514 25.376C85.8274 25.936 84.6914 26.216 83.4434 26.216ZM83.4434 24.296C84.2274 24.296 84.9634 24.112 85.6514 23.744C86.3394 23.376 86.8914 22.824 87.3074 22.088C87.7394 21.352 87.9554 20.456 87.9554 19.4C87.9554 18.344 87.7474 17.448 87.3314 16.712C86.9154 15.976 86.3714 15.432 85.6994 15.08C85.0274 14.712 84.2994 14.528 83.5154 14.528C82.7154 14.528 81.9794 14.712 81.3074 15.08C80.6514 15.432 80.1234 15.976 79.7234 16.712C79.3234 17.448 79.1234 18.344 79.1234 19.4C79.1234 20.472 79.3154 21.376 79.6994 22.112C80.0994 22.848 80.6274 23.4 81.2834 23.768C81.9394 24.12 82.6594 24.296 83.4434 24.296ZM97.7149 26.216C96.7069 26.216 95.8029 26.048 95.0029 25.712C94.2029 25.36 93.5709 24.88 93.1069 24.272C92.6429 23.648 92.3869 22.936 92.3389 22.136H94.5949C94.6589 22.792 94.9629 23.328 95.5069 23.744C96.0669 24.16 96.7949 24.368 97.6909 24.368C98.5229 24.368 99.1789 24.184 99.6589 23.816C100.139 23.448 100.379 22.984 100.379 22.424C100.379 21.848 100.123 21.424 99.6109 21.152C99.0989 20.864 98.3069 20.584 97.2349 20.312C96.2589 20.056 95.4589 19.8 94.8349 19.544C94.2269 19.272 93.6989 18.88 93.2509 18.368C92.8189 17.84 92.6029 17.152 92.6029 16.304C92.6029 15.632 92.8029 15.016 93.2029 14.456C93.6029 13.896 94.1709 13.456 94.9069 13.136C95.6429 12.8 96.4829 12.632 97.4269 12.632C98.8829 12.632 100.059 13 100.955 13.736C101.851 14.472 102.331 15.48 102.395 16.76H100.211C100.163 16.072 99.8829 15.52 99.3709 15.104C98.8749 14.688 98.2029 14.48 97.3549 14.48C96.5709 14.48 95.9469 14.648 95.4829 14.984C95.0189 15.32 94.7869 15.76 94.7869 16.304C94.7869 16.736 94.9229 17.096 95.1949 17.384C95.4829 17.656 95.8349 17.88 96.2509 18.056C96.6829 18.216 97.2749 18.4 98.0269 18.608C98.9709 18.864 99.7389 19.12 100.331 19.376C100.923 19.616 101.427 19.984 101.843 20.48C102.275 20.976 102.499 21.624 102.515 22.424C102.515 23.144 102.315 23.792 101.915 24.368C101.515 24.944 100.947 25.4 100.211 25.736C99.4909 26.056 98.6589 26.216 97.7149 26.216Z" fill="#063643"/>
</svg>
