<svg width="128" height="36" viewBox="0 0 128 36" fill="none" xmlns="http://www.w3.org/2000/svg">
<path d="M11.152 26.168C10.048 26.168 9.056 25.976 8.176 25.592C7.312 25.192 6.632 24.648 6.136 23.96C5.64 23.256 5.384 22.448 5.368 21.536H7.696C7.776 22.32 8.096 22.984 8.656 23.528C9.232 24.056 10.064 24.32 11.152 24.32C12.192 24.32 13.008 24.064 13.6 23.552C14.208 23.024 14.512 22.352 14.512 21.536C14.512 20.896 14.336 20.376 13.984 19.976C13.632 19.576 13.192 19.272 12.664 19.064C12.136 18.856 11.424 18.632 10.528 18.392C9.424 18.104 8.536 17.816 7.864 17.528C7.208 17.24 6.64 16.792 6.16 16.184C5.696 15.56 5.464 14.728 5.464 13.688C5.464 12.776 5.696 11.968 6.16 11.264C6.624 10.56 7.272 10.016 8.104 9.632C8.952 9.248 9.92 9.056 11.008 9.056C12.576 9.056 13.856 9.448 14.848 10.232C15.856 11.016 16.424 12.056 16.552 13.352H14.152C14.072 12.712 13.736 12.152 13.144 11.672C12.552 11.176 11.768 10.928 10.792 10.928C9.88 10.928 9.136 11.168 8.56 11.648C7.984 12.112 7.696 12.768 7.696 13.616C7.696 14.224 7.864 14.72 8.2 15.104C8.552 15.488 8.976 15.784 9.472 15.992C9.984 16.184 10.696 16.408 11.608 16.664C12.712 16.968 13.6 17.272 14.272 17.576C14.944 17.864 15.52 18.32 16 18.944C16.48 19.552 16.72 20.384 16.72 21.44C16.72 22.256 16.504 23.024 16.072 23.744C15.64 24.464 15 25.048 14.152 25.496C13.304 25.944 12.304 26.168 11.152 26.168ZM25.6699 26.216C24.4379 26.216 23.3179 25.936 22.3099 25.376C21.3179 24.816 20.5339 24.024 19.9579 23C19.3979 21.96 19.1179 20.76 19.1179 19.4C19.1179 18.056 19.4059 16.872 19.9819 15.848C20.5739 14.808 21.3739 14.016 22.3819 13.472C23.3899 12.912 24.5179 12.632 25.7659 12.632C27.0139 12.632 28.1419 12.912 29.1499 13.472C30.1579 14.016 30.9499 14.8 31.5259 15.824C32.1179 16.848 32.4139 18.04 32.4139 19.4C32.4139 20.76 32.1099 21.96 31.5019 23C30.9099 24.024 30.1019 24.816 29.0779 25.376C28.0539 25.936 26.9179 26.216 25.6699 26.216ZM25.6699 24.296C26.4539 24.296 27.1899 24.112 27.8779 23.744C28.5659 23.376 29.1179 22.824 29.5339 22.088C29.9659 21.352 30.1819 20.456 30.1819 19.4C30.1819 18.344 29.9739 17.448 29.5579 16.712C29.1419 15.976 28.5979 15.432 27.9259 15.08C27.2539 14.712 26.5259 14.528 25.7419 14.528C24.9419 14.528 24.2059 14.712 23.5339 15.08C22.8779 15.432 22.3499 15.976 21.9499 16.712C21.5499 17.448 21.3499 18.344 21.3499 19.4C21.3499 20.472 21.5419 21.376 21.9259 22.112C22.3259 22.848 22.8539 23.4 23.5099 23.768C24.1659 24.12 24.8859 24.296 25.6699 24.296ZM37.4695 15.296C37.9175 14.512 38.5735 13.872 39.4375 13.376C40.3015 12.88 41.2855 12.632 42.3895 12.632C43.5735 12.632 44.6375 12.912 45.5815 13.472C46.5255 14.032 47.2695 14.824 47.8135 15.848C48.3575 16.856 48.6295 18.032 48.6295 19.376C48.6295 20.704 48.3575 21.888 47.8135 22.928C47.2695 23.968 46.5175 24.776 45.5575 25.352C44.6135 25.928 43.5575 26.216 42.3895 26.216C41.2535 26.216 40.2535 25.968 39.3895 25.472C38.5415 24.976 37.9015 24.344 37.4695 23.576V26H35.2855V8.24H37.4695V15.296ZM46.3975 19.376C46.3975 18.384 46.1975 17.52 45.7975 16.784C45.3975 16.048 44.8535 15.488 44.1655 15.104C43.4935 14.72 42.7495 14.528 41.9335 14.528C41.1335 14.528 40.3895 14.728 39.7015 15.128C39.0295 15.512 38.4855 16.08 38.0695 16.832C37.6695 17.568 37.4695 18.424 37.4695 19.4C37.4695 20.392 37.6695 21.264 38.0695 22.016C38.4855 22.752 39.0295 23.32 39.7015 23.72C40.3895 24.104 41.1335 24.296 41.9335 24.296C42.7495 24.296 43.4935 24.104 44.1655 23.72C44.8535 23.32 45.3975 22.752 45.7975 22.016C46.1975 21.264 46.3975 20.384 46.3975 19.376ZM53.6883 14.984C54.0723 14.232 54.6163 13.648 55.3203 13.232C56.0403 12.816 56.9123 12.608 57.9363 12.608V14.864H57.3603C54.9123 14.864 53.6883 16.192 53.6883 18.848V26H51.5043V12.848H53.6883V14.984ZM72.4574 18.92C72.4574 19.336 72.4334 19.776 72.3854 20.24H61.8734C61.9534 21.536 62.3934 22.552 63.1934 23.288C64.0094 24.008 64.9934 24.368 66.1454 24.368C67.0894 24.368 67.8734 24.152 68.4974 23.72C69.1374 23.272 69.5854 22.68 69.8414 21.944H72.1934C71.8414 23.208 71.1374 24.24 70.0814 25.04C69.0254 25.824 67.7134 26.216 66.1454 26.216C64.8974 26.216 63.7774 25.936 62.7854 25.376C61.8094 24.816 61.0414 24.024 60.4814 23C59.9214 21.96 59.6414 20.76 59.6414 19.4C59.6414 18.04 59.9134 16.848 60.4574 15.824C61.0014 14.8 61.7614 14.016 62.7374 13.472C63.7294 12.912 64.8654 12.632 66.1454 12.632C67.3934 12.632 68.4974 12.904 69.4574 13.448C70.4174 13.992 71.1534 14.744 71.6654 15.704C72.1934 16.648 72.4574 17.72 72.4574 18.92ZM70.2014 18.464C70.2014 17.632 70.0174 16.92 69.6494 16.328C69.2814 15.72 68.7774 15.264 68.1374 14.96C67.5134 14.64 66.8174 14.48 66.0494 14.48C64.9454 14.48 64.0014 14.832 63.2174 15.536C62.4494 16.24 62.0094 17.216 61.8974 18.464H70.2014ZM88.1466 12.608C89.7466 12.608 91.0426 13.096 92.0346 14.072C93.0266 15.032 93.5226 16.424 93.5226 18.248V26H91.3626V18.56C91.3626 17.248 91.0346 16.248 90.3786 15.56C89.7226 14.856 88.8266 14.504 87.6906 14.504C86.5386 14.504 85.6186 14.864 84.9306 15.584C84.2586 16.304 83.9226 17.352 83.9226 18.728V26H81.7386V12.848H83.9226V14.72C84.3546 14.048 84.9386 13.528 85.6746 13.16C86.4266 12.792 87.2506 12.608 88.1466 12.608ZM102.826 26.216C101.594 26.216 100.474 25.936 99.4662 25.376C98.4742 24.816 97.6902 24.024 97.1142 23C96.5542 21.96 96.2742 20.76 96.2742 19.4C96.2742 18.056 96.5622 16.872 97.1382 15.848C97.7302 14.808 98.5302 14.016 99.5382 13.472C100.546 12.912 101.674 12.632 102.922 12.632C104.17 12.632 105.298 12.912 106.306 13.472C107.314 14.016 108.106 14.8 108.682 15.824C109.274 16.848 109.57 18.04 109.57 19.4C109.57 20.76 109.266 21.96 108.658 23C108.066 24.024 107.258 24.816 106.234 25.376C105.21 25.936 104.074 26.216 102.826 26.216ZM102.826 24.296C103.61 24.296 104.346 24.112 105.034 23.744C105.722 23.376 106.274 22.824 106.69 22.088C107.122 21.352 107.338 20.456 107.338 19.4C107.338 18.344 107.13 17.448 106.714 16.712C106.298 15.976 105.754 15.432 105.082 15.08C104.41 14.712 103.682 14.528 102.898 14.528C102.098 14.528 101.362 14.712 100.69 15.08C100.034 15.432 99.5062 15.976 99.1062 16.712C98.7062 17.448 98.5062 18.344 98.5062 19.4C98.5062 20.472 98.6982 21.376 99.0822 22.112C99.4822 22.848 100.01 23.4 100.666 23.768C101.322 24.12 102.042 24.296 102.826 24.296ZM105.274 8.96L100.162 11.696V10.064L105.274 7.064V8.96ZM117.098 26.216C116.09 26.216 115.186 26.048 114.386 25.712C113.586 25.36 112.954 24.88 112.49 24.272C112.026 23.648 111.77 22.936 111.722 22.136H113.978C114.042 22.792 114.346 23.328 114.89 23.744C115.45 24.16 116.178 24.368 117.074 24.368C117.906 24.368 118.562 24.184 119.042 23.816C119.522 23.448 119.762 22.984 119.762 22.424C119.762 21.848 119.506 21.424 118.994 21.152C118.482 20.864 117.69 20.584 116.618 20.312C115.642 20.056 114.842 19.8 114.218 19.544C113.61 19.272 113.082 18.88 112.634 18.368C112.202 17.84 111.986 17.152 111.986 16.304C111.986 15.632 112.186 15.016 112.586 14.456C112.986 13.896 113.554 13.456 114.29 13.136C115.026 12.8 115.866 12.632 116.81 12.632C118.266 12.632 119.442 13 120.338 13.736C121.234 14.472 121.714 15.48 121.778 16.76H119.594C119.546 16.072 119.266 15.52 118.754 15.104C118.258 14.688 117.586 14.48 116.738 14.48C115.954 14.48 115.33 14.648 114.866 14.984C114.402 15.32 114.17 15.76 114.17 16.304C114.17 16.736 114.306 17.096 114.578 17.384C114.866 17.656 115.218 17.88 115.634 18.056C116.066 18.216 116.658 18.4 117.41 18.608C118.354 18.864 119.122 19.12 119.714 19.376C120.306 19.616 120.81 19.984 121.226 20.48C121.658 20.976 121.882 21.624 121.898 22.424C121.898 23.144 121.698 23.792 121.298 24.368C120.898 24.944 120.33 25.4 119.594 25.736C118.874 26.056 118.042 26.216 117.098 26.216Z" fill="#063643"/>
</svg>
